<svg width="36" height="36" viewBox="0 0 36 36" fill="none" xmlns="http://www.w3.org/2000/svg">
<mask id="mask0_170_133" style="mask-type:luminance" maskUnits="userSpaceOnUse" x="0" y="0" width="36" height="36">
<path d="M36 0H0V36H36V0Z" fill="white"/>
</mask>
<g mask="url(#mask0_170_133)">
<path d="M2.26661 1.19174L4.60307 31.0827C4.62023 31.3021 4.70249 31.5114 4.83933 31.6839C4.97617 31.8563 5.16135 31.9838 5.37117 32.0504L17.6657 35.9483C17.8831 36.0172 18.1166 36.0172 18.334 35.9483L30.6285 32.0504C30.8384 31.9838 31.0235 31.8563 31.1604 31.6839C31.2972 31.5114 31.3795 31.3021 31.3966 31.0827L33.7332 1.19174C33.7834 0.549104 33.2754 0 32.6309 0H3.36887C2.72432 0 2.21644 0.549104 2.26661 1.19174ZM27.7415 10.4659H12.5142L12.9738 14.7036H27.4103L26.4658 26.7846L17.9999 29.4687L9.53398 26.7846L9.0406 20.4729H13.4842V23.5689L18.1187 24.8127L22.7254 23.5689L23.0828 18.6349H8.89689L7.95508 6.58552H28.0446L27.7415 10.4659Z" fill="#FC490B"/>
</g>
</svg>
