<svg width="38" height="38" viewBox="0 0 38 38" fill="none" xmlns="http://www.w3.org/2000/svg">
<path d="M2.17992 35.6287L14.1124 23.6962M29.1387 18.39L25.5668 29.1075C25.5095 29.2789 25.4118 29.434 25.2819 29.5596C25.152 29.6853 24.9938 29.7778 24.8205 29.8293L2.92429 36.3393C2.72703 36.3979 2.51747 36.4013 2.31843 36.349C2.11938 36.2968 1.93848 36.191 1.79541 36.0431C1.65233 35.8952 1.55257 35.7108 1.50697 35.5102C1.46137 35.3095 1.47169 35.1002 1.53679 34.905L8.64679 13.5787C8.69775 13.4256 8.78105 13.2852 8.89105 13.1671C9.00105 13.049 9.13516 12.956 9.28429 12.8943L19.3849 8.73558C19.5903 8.65077 19.8161 8.62866 20.034 8.67204C20.2519 8.71542 20.4521 8.82235 20.6093 8.97933L28.8668 17.2387C29.0145 17.3864 29.1182 17.5724 29.1663 17.7757C29.2143 17.9791 29.2047 18.1917 29.1387 18.39Z" stroke="black" stroke-width="2.8125" stroke-linecap="round" stroke-linejoin="round"/>
<path d="M30.5055 2.96624L34.938 7.39874C35.2711 7.71742 35.5372 8.09942 35.7207 8.52232C35.9041 8.94522 36.0012 9.40051 36.0063 9.86146C36.0114 10.3224 35.9244 10.7797 35.7503 11.2066C35.5763 11.6335 35.3187 12.0212 34.9928 12.3472C34.6668 12.6732 34.279 12.9307 33.8521 13.1048C33.4253 13.2788 32.968 13.3659 32.507 13.3608C32.0461 13.3557 31.5908 13.2586 31.1679 13.0751C30.745 12.8917 30.363 12.6256 30.0443 12.2925L25.6099 7.85999C24.9845 7.20626 24.6399 6.33363 24.6499 5.42896C24.6599 4.52429 25.0237 3.6595 25.6634 3.01976C26.3032 2.38002 27.168 2.0162 28.0726 2.00619C28.9773 1.99619 29.8518 2.3408 30.5055 2.96624Z" fill="black" stroke="black" stroke-width="2.8125" stroke-linecap="round" stroke-linejoin="round"/>
<path d="M18.0894 19.7175C17.83 19.4489 17.5196 19.2346 17.1765 19.0872C16.8333 18.9398 16.4643 18.8622 16.0908 18.859C15.7174 18.8557 15.3471 18.9269 15.0014 19.0683C14.6558 19.2097 14.3417 19.4186 14.0777 19.6826C13.8136 19.9467 13.6048 20.2607 13.4633 20.6064C13.3219 20.952 13.2508 21.3224 13.254 21.6958C13.2573 22.0693 13.3348 22.4383 13.4822 22.7815C13.6296 23.1246 13.8439 23.4349 14.1125 23.6944C14.643 24.2067 15.3534 24.4902 16.0908 24.4838C16.8283 24.4774 17.5337 24.1816 18.0551 23.6601C18.5766 23.1387 18.8724 22.4333 18.8788 21.6958C18.8852 20.9584 18.6017 20.248 18.0894 19.7175Z" stroke="black" stroke-width="2.8125" stroke-linecap="round" stroke-linejoin="round"/>
</svg>
