<svg width="32" height="28" viewBox="0 0 32 28" fill="none" xmlns="http://www.w3.org/2000/svg">
<path d="M8.58099 11.0181C8.30388 10.8369 8.02606 10.7463 7.74895 10.7463H6.50339V17.2756H7.74966C8.02677 17.2756 8.30459 17.185 8.5817 17.0037C8.85881 16.8225 8.99736 16.5506 8.99736 16.1875V11.8344C8.99665 11.4719 8.85738 11.1994 8.58099 11.0181ZM28.8627 0H3.13739C1.40904 0 0.00636037 1.22438 0.0020752 2.7375V25.2625C0.00636037 26.7756 1.40904 28 3.13739 28H28.8627C30.5918 28 31.9937 26.7756 31.998 25.2625V2.7375C31.9937 1.22438 30.591 0 28.8627 0ZM11.015 16.1994C11.015 17.375 10.1858 19.1563 7.56111 19.1525H4.24725V8.81125H7.63111C10.1622 8.81125 11.0135 10.59 11.0142 11.7662L11.015 16.1994ZM18.2055 10.6581H14.4002V13.0594H16.7264V14.9075H14.4002V17.3081H18.2062V19.1562H13.7653C12.9683 19.1744 12.3055 18.6231 12.2855 17.9256V10.1062C12.2662 9.40937 12.8969 8.83062 13.6932 8.81312H18.2062L18.2055 10.6581ZM25.6074 17.8638C24.6647 19.7856 22.9756 19.4031 22.2193 17.8638L19.4675 8.81375H21.7936L23.9155 15.9212L26.0273 8.81375H28.3542L25.6074 17.8638Z" fill="#545454"/>
</svg>
