<svg width="32" height="32" viewBox="0 0 32 32" fill="none" xmlns="http://www.w3.org/2000/svg">
<g clip-path="url(#clip0_629_15)">
<path d="M0 0H32V32H0V0Z" fill="#F7DF1E"/>
<path d="M8.41394 26.7419L10.8627 25.2599C11.3352 26.0975 11.7649 26.8063 12.7958 26.8063C13.7839 26.8063 14.4071 26.4198 14.4071 24.9163V14.6915H17.4142V24.9588C17.4142 28.0734 15.5884 29.4912 12.9247 29.4912C10.5191 29.4912 9.12269 28.2453 8.41382 26.7417M19.0476 26.4197L21.4961 25.002C22.1407 26.0547 22.9784 26.8279 24.4604 26.8279C25.7066 26.8279 26.5011 26.2049 26.5011 25.3457C26.5011 24.3147 25.6848 23.9494 24.3101 23.3482L23.5584 23.0257C21.3888 22.1023 19.9497 20.9423 19.9497 18.4935C19.9497 16.238 21.6681 14.5195 24.3532 14.5195C26.2649 14.5195 27.6397 15.1855 28.6277 16.9254L26.2862 18.4292C25.7706 17.5055 25.2123 17.1404 24.3531 17.1404C23.4723 17.1404 22.9138 17.6989 22.9138 18.4292C22.9138 19.3313 23.4723 19.6967 24.7611 20.2552L25.5128 20.5773C28.0691 21.6729 29.5082 22.7898 29.5082 25.3028C29.5082 28.0095 27.3817 29.4915 24.5248 29.4915C21.7324 29.4915 19.9281 28.1598 19.0474 26.4198" fill="black"/>
</g>
<defs>
<clipPath id="clip0_629_15">
<rect width="32" height="32" fill="white"/>
</clipPath>
</defs>
</svg>
