<svg width="36" height="36" viewBox="0 0 36 36" fill="none" xmlns="http://www.w3.org/2000/svg">
<mask id="mask0_170_121" style="mask-type:luminance" maskUnits="userSpaceOnUse" x="0" y="0" width="36" height="36">
<path d="M36 0H0V36H36V0Z" fill="white"/>
</mask>
<g mask="url(#mask0_170_121)">
<path d="M0 0H36V36H0V0Z" fill="#FFDF00"/>
<path d="M24.1828 28.125C24.908 29.309 25.8514 30.1793 27.52 30.1793C28.9217 30.1793 29.8171 29.4787 29.8171 28.5107C29.8171 27.3506 28.8971 26.9398 27.3543 26.265L26.5085 25.9021C24.0674 24.8621 22.4457 23.5592 22.4457 20.8049C22.4457 18.2678 24.3789 16.3364 27.3999 16.3364C29.5508 16.3364 31.0971 17.085 32.2113 19.0449L29.5772 20.7364C28.997 19.6964 28.3714 19.2866 27.3999 19.2866C26.4092 19.2866 25.7811 19.9152 25.7811 20.7364C25.7811 21.7512 26.4097 22.1621 27.8611 22.7907L28.7067 23.1529C31.5811 24.3855 33.2039 25.642 33.2039 28.4673C33.2039 31.513 30.8113 33.1816 27.5982 33.1816C24.4564 33.1816 22.4268 31.6844 21.4336 29.7221L24.1828 28.125ZM12.2325 28.4182C12.7639 29.3611 13.2474 30.1582 14.4096 30.1582C15.5211 30.1582 16.2222 29.7233 16.2222 28.0324V16.5295H19.6052V28.0781C19.6052 31.581 17.5514 33.1753 14.5536 33.1753C11.8451 33.1753 10.2765 31.7736 9.47876 30.0852L12.2325 28.4182Z" fill="#1D1B20"/>
</g>
</svg>
