<svg width="58" height="58" viewBox="0 0 58 58" fill="none" xmlns="http://www.w3.org/2000/svg">
<path d="M25.5802 52.9126L22.1604 57.0002H24.5115L27.0764 56.3871L32.2062 54.5476L36.6948 51.8907L40.3283 48.6206L42.0383 46.1681L43.5344 43.5111L44.3894 40.8542L44.6031 37.9929L46.0993 40.0367L46.9543 41.8761L47.8093 43.9199L48.2367 46.1681L49.7329 43.9199L50.8016 41.0586L51.0154 38.1973L50.5879 35.1316L49.7329 37.7885L48.6642 40.0367L47.8093 38.1973L46.5268 36.3578L45.0306 34.9272L42.6795 33.9053L42.252 36.7666L41.6108 39.4235L39.0459 44.3286L34.9848 48.2119L32.8474 49.6425L30.0688 50.46L30.2825 46.9856L29.6413 43.3067L27.9314 40.241L24.7253 37.9929L27.0764 43.3067V48.6206L25.5802 52.9126Z" fill="#6A6F8D" stroke="white" stroke-width="0.2"/>
<path d="M31.5649 34.9271L33.0611 36.3577L34.3435 38.1971L34.9847 40.0366L31.9924 37.584L28.5725 36.1533L26.8626 35.5402L24.7252 35.1314L20.8779 34.9271L14.2519 35.5402H11.9008L10.6183 34.5183L9.76336 32.8833L8.69466 32.0657L7.19847 31.2482L5.70229 30.0219L4.41985 28.7957L3.56489 27.365L2.28244 26.9562L1 25.9343V24.7081L2.28244 23.8905L4.20611 23.073L7.62595 21.6424L14.4656 18.7811L15.1069 16.9416L15.7481 15.9197L16.3893 15.1022L17.2443 14.2847L18.313 13.6716L19.8092 13.0584L23.4427 11.4234L27.2901 10.1971L26.6489 7.94892L26.4351 5.49636V3.24818L26.8626 1L31.1374 3.0438L34.3435 5.49636L36.9084 8.56206L38.6183 12.0365V9.37958H41.6107L44.3893 9.99272L47.3817 11.0146L49.7328 12.4453L54.2214 15.511L57 18.9854L52.9389 17.3504L50.374 16.9416L47.8092 16.5329L42.8931 16.1241H37.7634L40.3282 17.5548L42.2519 19.3942L43.9618 21.6424L44.8168 23.6862L42.2519 22.7665L39.687 21.8468L36.9084 21.438L33.7023 21.2336L30.4962 21.0292L27.2901 20.8249L23.8702 21.0292L21.5191 21.6424H23.6565L25.7939 22.0511L27.7176 22.6643L29.2137 23.4818L23.4427 23.6862L18.0992 24.2993L12.7557 25.3212L7.83969 26.9562L8.69466 28.3869L10.1908 29.8176L11.687 30.8395L12.7557 32.2701L15.3206 31.657L18.0992 31.4526L20.8779 31.2482H23.4427L29 31.8614L31.1374 32.2701L33.0611 33.292H30.9237L29.6412 33.7008L31.5649 34.9271Z" fill="#6A6F8D" stroke="white" stroke-width="0.2"/>
<path d="M26.0076 9.58389L22.8015 10.8102L21.9465 8.56199V5.90505L22.1603 2.83936L25.3664 4.06563L25.7939 6.92695L26.0076 9.58389Z" fill="#6A6F8D" stroke="white" stroke-width="0.2"/>
<path d="M30.4962 9.3798L29.4275 9.58418L28.7863 7.94914L28.5725 5.90534L28.7863 4.06592L30.7099 5.08782L32.2061 6.10972L33.7023 7.54038L34.5572 8.97104H32.2061L30.2824 6.92724L30.4962 9.3798Z" fill="white" stroke="white" stroke-width="0.2"/>
<path d="M19.5956 19.3941L16.3895 19.1897L18.7407 17.3503L19.8094 16.5328L20.8781 16.124L20.4506 17.7591L19.5956 19.3941Z" fill="#6A6F8D" stroke="white" stroke-width="0.2"/>
</svg>
