<svg width="35" height="31" viewBox="0 0 35 31" fill="none" xmlns="http://www.w3.org/2000/svg">
<path d="M17.5 30.9999C16.9565 30.9999 16.4493 30.886 15.9783 30.6866L11.1594 28.4367C10.4348 28.1235 10.7971 28.0096 11.0145 27.9526C11.9927 27.6963 12.1738 27.6393 13.1883 27.1836C13.2971 27.1266 13.4421 27.1551 13.5506 27.2121L17.2464 28.9493C17.3913 29.0063 17.5725 29.0063 17.6812 28.9493L32.1378 22.3706C32.2827 22.3137 32.3552 22.1998 32.3552 22.0574V8.92818C32.3552 8.78579 32.2827 8.67188 32.1378 8.61492L17.6812 2.06457C17.5362 2.00762 17.3551 2.00762 17.2464 2.06457L2.78975 8.61503C2.64482 8.67199 2.57236 8.81438 2.57236 8.92829V22.0574C2.57236 22.1713 2.64482 22.3137 2.78975 22.3706L6.73914 24.1648C8.87687 25.0191 10.2173 24.0224 10.2173 23.0256V10.0673C10.2173 9.89645 10.3986 9.72558 10.6522 9.72558H12.5001C12.7174 9.72558 12.9348 9.86797 12.9348 10.0673V23.0255C12.9348 25.2754 11.3768 26.5854 8.65936 26.5854C7.82605 26.5854 7.17391 26.5854 5.32615 25.8735L1.52168 24.1648C0.579688 23.7375 0 22.9401 0 22.0857V8.95677C0 8.10242 0.579688 7.30503 1.52168 6.87774L15.9783 0.299023C16.8841 -0.0996743 18.1159 -0.0996743 19.0217 0.299023L33.4783 6.87774C34.4203 7.30492 35 8.10231 35 8.95677V22.0858C35 22.9402 34.4203 23.7376 33.4783 24.1648L19.0217 30.7437C18.5507 30.9146 18.0072 31 17.5 31M21.9565 21.9719C15.6159 21.9719 14.3116 19.6937 14.3116 17.757C14.3116 17.5861 14.4927 17.4153 14.7463 17.4153H16.6303C16.8477 17.4153 17.029 17.5292 17.029 17.7001C17.3188 19.2094 18.1521 19.95 21.9927 19.95C25.0362 19.95 26.3406 19.4089 26.3406 18.1273C26.3406 17.3868 25.9783 16.8457 21.2319 16.4754C17.2826 16.1621 14.8188 15.4786 14.8188 13.001C14.8188 10.6941 17.2825 9.3271 21.413 9.3271C26.0507 9.3271 28.3333 10.5801 28.6232 13.3142C28.6232 13.3996 28.5869 13.4851 28.5145 13.5705C28.442 13.6274 28.3333 13.6844 28.2246 13.6844H26.3406C26.1594 13.6844 25.9783 13.5705 25.942 13.4281C25.5072 11.8618 24.3841 11.3492 21.413 11.3492C18.0798 11.3492 17.6812 12.2605 17.6812 12.944C17.6812 13.7699 18.1521 14.0261 22.6449 14.4818C27.1015 14.9374 29.2029 15.5926 29.2029 18.0418C29.1666 20.548 26.558 21.9719 21.9565 21.9719Z" fill="#539E43"/>
</svg>
