<svg width="21" height="32" viewBox="0 0 21 32" fill="none" xmlns="http://www.w3.org/2000/svg">
<path d="M11.25 10.5H5.25C2.3505 10.5 0 8.1495 0 5.25C0 2.3505 2.3505 0 5.25 0H11.25V10.5Z" fill="#E64A19"/>
<path d="M10.5 21H5.25C2.3505 21 0 18.6495 0 15.75C0 12.8505 2.3505 10.5 5.25 10.5H10.5V21Z" fill="#7C4DFF"/>
<path d="M5.25 31.5C2.3505 31.5 0 29.1495 0 26.25C0 23.3505 2.3505 21 5.25 21H10.5V26.25C10.5 29.1495 8.1495 31.5 5.25 31.5Z" fill="#66BB6A"/>
<path d="M15.75 10.5H10.5V0H15.75C18.6495 0 21 2.3505 21 5.25C21 8.1495 18.6495 10.5 15.75 10.5Z" fill="#FF7043"/>
<path d="M15.75 21C18.6495 21 21 18.6495 21 15.75C21 12.8505 18.6495 10.5 15.75 10.5C12.8505 10.5 10.5 12.8505 10.5 15.75C10.5 18.6495 12.8505 21 15.75 21Z" fill="#29B6F6"/>
</svg>
