<svg width="30" height="22" viewBox="0 0 30 22" fill="none" xmlns="http://www.w3.org/2000/svg">
<path d="M2.66659 22H27.3333C28.6219 22 29.6666 20.9553 29.6666 19.6667V2.33333C29.6666 1.04467 28.6219 0 27.3333 0H2.66659C1.37792 0 0.333252 1.04467 0.333252 2.33333V19.6667C0.333252 20.9553 1.37792 22 2.66659 22Z" fill="#E0E0E0"/>
<path d="M16.3333 22H27.3333C28.6219 22 29.6666 20.9553 29.6666 19.6667V2.33333C29.6666 1.04467 28.6219 0 27.3333 0H2.66659C1.37792 0 0.333252 1.04467 0.333252 2.33333L16.3333 22Z" fill="#D9D9D9"/>
<path d="M3.49658 21.9998H27.3332C28.6219 21.9998 29.6666 20.9552 29.6666 19.6665V2.6665L3.49658 21.9998Z" fill="#EEEEEE"/>
<path d="M16.1632 21.9998H27.3332C28.6219 21.9998 29.6666 20.9552 29.6666 19.6665V2.6665L11.5139 16.0772L16.1632 21.9998Z" fill="#E0E0E0"/>
<path d="M27.3333 1.3333H2.66659C1.37792 1.3333 0.333252 1.04463 0.333252 2.3333V19.6666C0.333252 20.9553 1.37792 22 2.66659 22H3.66659V2.99996H26.3333V22H27.3333C28.6219 22 29.6666 20.9553 29.6666 19.6666V2.3333C29.6666 1.04463 28.6219 1.3333 27.3333 1.3333Z" fill="#CA3737"/>
<path d="M27.3333 0H14.9999H2.66659C1.37792 0 0.333252 1.024 0.333252 2.33333C0.333252 3.13733 1.34525 3.83867 1.34525 3.83867L14.9999 13.504L28.6546 3.83933C28.6546 3.83933 29.6666 3.13733 29.6666 2.334C29.6666 1.024 28.6219 0 27.3333 0Z" fill="#F5F5F5"/>
<path d="M27.8306 0.0546875L14.9999 9.00002L2.16925 0.0546875C1.11992 0.279354 0.333252 1.19802 0.333252 2.33335C0.333252 3.13735 1.34525 3.83869 1.34525 3.83869L14.9999 13.504L28.6546 3.83935C28.6546 3.83935 29.6666 3.13735 29.6666 2.33402C29.6666 1.19802 28.8799 0.279354 27.8306 0.0546875Z" fill="#E84F4B"/>
</svg>
