<svg width="34" height="34" viewBox="0 0 34 34" fill="none" xmlns="http://www.w3.org/2000/svg">
<path d="M17 32C25.2843 32 32 25.2843 32 17C32 8.71572 25.2843 2 17 2C8.71572 2 2 8.71572 2 17C2 25.2843 8.71572 32 17 32Z" stroke="#333333" stroke-width="3.75" stroke-linecap="round" stroke-linejoin="round"/>
<path d="M2 17H32" stroke="#333333" stroke-width="3.75" stroke-linecap="round" stroke-linejoin="round"/>
<path d="M17 32C20.3137 32 23 25.2843 23 17C23 8.71572 20.3137 2 17 2C13.6863 2 11 8.71572 11 17C11 25.2843 13.6863 32 17 32Z" stroke="#333333" stroke-width="3.75" stroke-linecap="round" stroke-linejoin="round"/>
<path d="M6.39331 6.60645C9.10778 9.32092 12.8578 10.9999 16.9999 10.9999C21.1421 10.9999 24.8921 9.32092 27.6065 6.60645" stroke="#333333" stroke-width="3.75" stroke-linecap="round" stroke-linejoin="round"/>
<path d="M27.6065 27.3934C24.8921 24.6789 21.1421 23 16.9999 23C12.8578 23 9.10778 24.6789 6.39331 27.3934" stroke="#333333" stroke-width="3.75" stroke-linecap="round" stroke-linejoin="round"/>
</svg>
